<svg width="63" height="12" viewBox="0 0 63 12" fill="none" xmlns="http://www.w3.org/2000/svg">
<rect width="25.1803" height="11.1913" fill="#6BC530"/>
<rect x="25.1797" width="37.7705" height="11.1913" fill="#272727"/>
<path d="M4.53105 7.45312V3.53618H5.81245C6.27129 3.53618 6.64806 3.61639 6.94277 3.7768C7.2412 3.9372 7.46129 4.16476 7.60305 4.45946C7.74854 4.75044 7.82128 5.09737 7.82128 5.50025C7.82128 5.89567 7.74854 6.24074 7.60305 6.53544C7.46129 6.82641 7.2412 7.0521 6.94277 7.21251C6.64806 7.37292 6.27129 7.45312 5.81245 7.45312H4.53105ZM5.14657 6.93273H5.78447C6.13513 6.93273 6.41305 6.87491 6.61822 6.75927C6.82339 6.64362 6.97074 6.47949 7.06027 6.26685C7.1498 6.05422 7.19457 5.79868 7.19457 5.50025C7.19457 5.20182 7.1498 4.94442 7.06027 4.72805C6.97074 4.51169 6.82339 4.34569 6.61822 4.23004C6.41305 4.1144 6.13513 4.05658 5.78447 4.05658H5.14657V6.93273ZM8.36165 7.45312V3.53618H9.09468L10.5607 6.92714L10.2865 6.95511L11.747 3.53618H12.4744V7.45312H11.8589V4.07336L12.0716 4.18528L10.6615 7.45312H10.1802L8.76454 4.18528L8.97717 4.07336V7.45312H8.36165ZM14.8776 7.52027C14.4896 7.52027 14.1539 7.43634 13.8704 7.26847C13.5869 7.09687 13.3686 6.85999 13.2157 6.55782C13.0665 6.25193 12.9919 5.89941 12.9919 5.50025C12.9919 5.09737 13.0665 4.74484 13.2157 4.44268C13.3686 4.13678 13.5869 3.89804 13.8704 3.72644C14.1539 3.55484 14.4896 3.46904 14.8776 3.46904C15.3402 3.46904 15.7169 3.58281 16.0079 3.81037C16.2989 4.0342 16.4835 4.34942 16.5619 4.75603H15.8792C15.8307 4.52848 15.7207 4.34942 15.5491 4.21885C15.3812 4.08829 15.1555 4.023 14.872 4.023C14.6146 4.023 14.3926 4.08269 14.2061 4.20206C14.0196 4.31771 13.8741 4.48744 13.7697 4.71127C13.6689 4.93136 13.6186 5.19436 13.6186 5.50025C13.6186 5.80614 13.6689 6.06914 13.7697 6.28923C13.8741 6.5056 14.0196 6.67347 14.2061 6.79284C14.3926 6.91221 14.6146 6.9719 14.872 6.9719C15.1555 6.9719 15.3812 6.90848 15.5491 6.78165C15.7169 6.65482 15.8288 6.47389 15.8848 6.23887H16.5675C16.4891 6.64549 16.3026 6.96071 16.0079 7.18453C15.7169 7.40836 15.3402 7.52027 14.8776 7.52027ZM16.6897 7.45312L18.1222 3.53618H18.8049L20.2374 7.45312H19.5883L18.3293 3.88871H18.5923L17.3332 7.45312H16.6897ZM17.35 6.50746L17.5235 6.01505H19.4036L19.5771 6.50746H17.35Z" fill="white"/>
<path d="M29.0154 7.45312V3.53618H30.4031C30.7128 3.53618 30.9683 3.58841 31.1697 3.69286C31.3712 3.79358 31.5204 3.93347 31.6174 4.11253C31.7181 4.28786 31.7685 4.48931 31.7685 4.71686C31.7685 4.92577 31.72 5.11975 31.623 5.29881C31.526 5.47787 31.3768 5.62149 31.1753 5.72967C30.9739 5.83412 30.7165 5.88635 30.4031 5.88635H29.6309V7.45312H29.0154ZM29.6309 5.38274H30.3696C30.6456 5.38274 30.8433 5.32306 30.9627 5.20368C31.0821 5.08431 31.1418 4.92204 31.1418 4.71686C31.1418 4.50423 31.0821 4.33822 30.9627 4.21885C30.8433 4.09948 30.6456 4.03979 30.3696 4.03979H29.6309V5.38274ZM32.3105 7.45312V3.53618H33.9053C34.2149 3.53618 34.4704 3.58841 34.6719 3.69286C34.8733 3.79731 35.0225 3.93907 35.1195 4.11813C35.2165 4.29346 35.265 4.4949 35.265 4.72246C35.265 4.91271 35.2221 5.08804 35.1363 5.24845C35.0542 5.40512 34.9349 5.53569 34.7782 5.64014C34.9423 5.7334 35.0636 5.86024 35.1419 6.02064C35.224 6.18105 35.2687 6.36757 35.2762 6.58021L35.321 7.45312H34.7222L34.6663 6.60818C34.6588 6.44405 34.629 6.30975 34.5767 6.2053C34.5282 6.10085 34.4499 6.02437 34.3417 5.97588C34.2335 5.92738 34.0843 5.90314 33.8941 5.90314H32.926V7.45312H32.3105ZM32.926 5.40512H33.8661C34.1347 5.40512 34.3305 5.34171 34.4536 5.21487C34.5767 5.08804 34.6383 4.9239 34.6383 4.72246C34.6383 4.50982 34.5767 4.34382 34.4536 4.22445C34.3343 4.10134 34.1365 4.03979 33.8605 4.03979H32.926V5.40512ZM37.6257 7.52027C37.2377 7.52027 36.8983 7.43447 36.6073 7.26287C36.3163 7.09127 36.0888 6.85439 35.9246 6.55223C35.7605 6.25006 35.6784 5.89754 35.6784 5.49465C35.6784 5.0955 35.7586 4.74484 35.919 4.44268C36.0832 4.13678 36.3107 3.89804 36.6017 3.72644C36.8964 3.55484 37.2377 3.46904 37.6257 3.46904C38.0174 3.46904 38.3587 3.55484 38.6497 3.72644C38.9407 3.89804 39.1664 4.13678 39.3268 4.44268C39.4909 4.74484 39.573 5.0955 39.573 5.49465C39.573 5.89754 39.4909 6.25006 39.3268 6.55223C39.1664 6.85439 38.9407 7.09127 38.6497 7.26287C38.3587 7.43447 38.0174 7.52027 37.6257 7.52027ZM37.6257 6.9719C37.8943 6.9719 38.1256 6.91408 38.3196 6.79844C38.5173 6.67906 38.6702 6.50933 38.7784 6.28923C38.8903 6.06541 38.9463 5.80055 38.9463 5.49465C38.9463 5.18876 38.8903 4.92577 38.7784 4.70567C38.6702 4.48558 38.5173 4.31771 38.3196 4.20206C38.1256 4.08269 37.8943 4.023 37.6257 4.023C37.3646 4.023 37.1333 4.08269 36.9318 4.20206C36.7341 4.31771 36.5793 4.48558 36.4674 4.70567C36.3592 4.92577 36.3051 5.18876 36.3051 5.49465C36.3051 5.80055 36.3592 6.06541 36.4674 6.28923C36.5793 6.50933 36.7341 6.67906 36.9318 6.79844C37.1333 6.91408 37.3646 6.9719 37.6257 6.9719ZM40.7766 7.45312V4.0342H39.6183V3.53618H42.5448V4.0342H41.3921V7.45312H40.7766ZM43.0368 7.45312V3.53618H45.5324V4.0342H43.6523V5.22606H45.3645V5.71848H43.6523V6.95511H45.5324V7.45312H43.0368ZM47.739 7.52027C47.351 7.52027 47.0153 7.43634 46.7318 7.26847C46.4483 7.09687 46.2301 6.85999 46.0771 6.55782C45.9279 6.25193 45.8533 5.89941 45.8533 5.50025C45.8533 5.09737 45.9279 4.74484 46.0771 4.44268C46.2301 4.13678 46.4483 3.89804 46.7318 3.72644C47.0153 3.55484 47.351 3.46904 47.739 3.46904C48.2016 3.46904 48.5784 3.58281 48.8693 3.81037C49.1603 4.0342 49.345 4.34942 49.4233 4.75603H48.7406C48.6921 4.52848 48.5821 4.34942 48.4105 4.21885C48.2426 4.08829 48.0169 4.023 47.7334 4.023C47.476 4.023 47.2541 4.08269 47.0675 4.20206C46.881 4.31771 46.7355 4.48744 46.6311 4.71127C46.5304 4.93136 46.48 5.19436 46.48 5.50025C46.48 5.80614 46.5304 6.06914 46.6311 6.28923C46.7355 6.5056 46.881 6.67347 47.0675 6.79284C47.2541 6.91221 47.476 6.9719 47.7334 6.9719C48.0169 6.9719 48.2426 6.90848 48.4105 6.78165C48.5784 6.65482 48.6903 6.47389 48.7462 6.23887H49.4289C49.3506 6.64549 49.164 6.96071 48.8693 7.18453C48.5784 7.40836 48.2016 7.52027 47.739 7.52027ZM50.7766 7.45312V4.0342H49.6183V3.53618H52.5448V4.0342H51.3921V7.45312H50.7766ZM53.0368 7.45312V3.53618H55.5324V4.0342H53.6523V5.22606H55.3645V5.71848H53.6523V6.95511H55.5324V7.45312H53.0368ZM56.0755 7.45312V3.53618H57.3569C57.8158 3.53618 58.1926 3.61639 58.4873 3.7768C58.7857 3.9372 59.0058 4.16476 59.1475 4.45946C59.293 4.75044 59.3658 5.09737 59.3658 5.50025C59.3658 5.89567 59.293 6.24074 59.1475 6.53544C59.0058 6.82641 58.7857 7.0521 58.4873 7.21251C58.1926 7.37292 57.8158 7.45312 57.3569 7.45312H56.0755ZM56.6911 6.93273H57.329C57.6796 6.93273 57.9575 6.87491 58.1627 6.75927C58.3679 6.64362 58.5152 6.47949 58.6048 6.26685C58.6943 6.05422 58.7391 5.79868 58.7391 5.50025C58.7391 5.20182 58.6943 4.94442 58.6048 4.72805C58.5152 4.51169 58.3679 4.34569 58.1627 4.23004C57.9575 4.1144 57.6796 4.05658 57.329 4.05658H56.6911V6.93273Z" fill="white"/>
</svg>
