<svg width="8" height="15" viewBox="0 0 8 15" fill="none" xmlns="http://www.w3.org/2000/svg">
<path d="M6.14986 0C6.38857 0.0185115 6.62728 0.0365601 6.86552 0.0559971C7.03053 0.0694179 7.19508 0.0851527 7.3638 0.102276V2.35605C7.29612 2.35605 7.23309 2.35605 7.17005 2.35605C6.69402 2.36299 6.21753 2.35605 5.7429 2.38104C5.15239 2.41297 4.82515 2.72442 4.79873 3.31263C4.77092 3.92952 4.7927 4.54827 4.7927 5.18691H7.28037C7.17051 6.03937 7.06298 6.86914 6.95591 7.71326H4.78668V14.1691H2.1785V7.71697H0V5.19478H2.17433C2.17433 5.12351 2.17433 5.07029 2.17433 5.01707C2.17711 4.35714 2.16042 3.69628 2.18777 3.03727C2.22022 2.24266 2.45522 1.51424 3.01653 0.920483C3.44342 0.468803 3.976 0.210568 4.5781 0.0874666C4.73986 0.0536832 4.90255 0.0296183 5.06617 0.0013883L6.14986 0Z" fill="#005BFF"/>
</svg>
