<svg width="14" height="14" viewBox="0 0 14 14" fill="none" xmlns="http://www.w3.org/2000/svg">
<path d="M8.81317 13.5291H4.73441C4.65172 13.5222 4.5686 13.5107 4.48549 13.5081C3.94737 13.4936 3.4101 13.4726 2.88312 13.3456C1.76017 13.0748 0.926857 12.44 0.430295 11.3911C0.123102 10.7417 0.0305593 10.0427 0.0232758 9.3335C0.00828033 7.87565 -0.00500133 6.41695 0.00185372 4.95911C0.0048528 4.2597 0.00956572 3.55687 0.179657 2.8703C0.475281 1.67511 1.17364 0.816998 2.32657 0.351155C2.94567 0.100053 3.59904 0.0294709 4.25884 0.0226265C5.63542 0.00765452 7.01243 -0.00389531 8.38944 0.00123795C9.11222 0.00380458 9.83885 0.0012377 10.5509 0.15438C11.865 0.440131 12.7861 1.19173 13.2501 2.46862C13.472 3.08205 13.5247 3.72285 13.5269 4.3675C13.532 5.92758 13.5363 7.48724 13.5239 9.04689C13.5203 9.49094 13.4844 9.93415 13.4163 10.373C13.2762 11.2692 12.8726 12.0327 12.1631 12.6171C11.4716 13.1864 10.6542 13.4153 9.77716 13.4726C9.4554 13.4987 9.13407 13.5128 8.81317 13.5291ZM6.77336 12.3313V12.3104C7.13111 12.3104 7.48886 12.3211 7.84446 12.3082C8.61566 12.2804 9.39242 12.2903 10.1555 12.1936C11.1983 12.0614 11.9018 11.4591 12.1563 10.4235C12.2578 10.0085 12.2921 9.56792 12.3002 9.14015C12.3251 7.88535 12.333 6.6297 12.3238 5.37319C12.3254 4.71861 12.2912 4.06443 12.2214 3.41357C12.0929 2.32617 11.4074 1.5857 10.3363 1.37353C9.86799 1.2807 9.38214 1.25161 8.90314 1.2452C7.63238 1.22695 6.36134 1.22495 5.09002 1.23921C4.50005 1.24605 3.90538 1.26744 3.32313 1.35257C2.28844 1.50314 1.58494 2.17474 1.37586 3.19412C1.29143 3.63985 1.2474 4.09226 1.24433 4.54588C1.2212 5.63841 1.21263 6.73136 1.22462 7.82389C1.23276 8.58062 1.25204 9.33991 1.32659 10.0911C1.40286 10.8658 1.7726 11.4955 2.46796 11.8958C2.8934 12.141 3.36469 12.2428 3.84882 12.2599C4.82353 12.2937 5.79866 12.3104 6.77336 12.3343V12.3313Z" fill="#005BFF"/>
<path d="M3.28906 6.75818C3.28923 6.0705 3.49359 5.39831 3.8763 4.82657C4.25901 4.25483 4.8029 3.8092 5.43922 3.54602C6.07553 3.28284 6.77571 3.21392 7.45125 3.34796C8.12679 3.48201 8.74737 3.813 9.23454 4.29911C9.72171 4.78523 10.0536 5.40463 10.1883 6.07903C10.3229 6.75343 10.2543 7.45256 9.99114 8.08804C9.72794 8.72353 9.28195 9.26684 8.70955 9.6493C8.13715 10.0318 7.46404 10.2362 6.77528 10.2368C5.85098 10.237 4.96444 9.87068 4.31066 9.21832C3.65688 8.56596 3.2894 7.68103 3.28906 6.75818ZM6.77271 9.01167C7.21907 9.01159 7.65537 8.87932 8.02641 8.63159C8.39746 8.38386 8.68657 8.03182 8.85716 7.61999C9.02776 7.20817 9.07218 6.75508 8.9848 6.31804C8.89742 5.88101 8.68216 5.47967 8.36627 5.16481C8.05038 4.84995 7.64805 4.63572 7.21018 4.54922C6.77231 4.46273 6.31859 4.50785 5.90641 4.67888C5.49424 4.84992 5.14213 5.13918 4.89465 5.51007C4.64717 5.88095 4.51544 6.3168 4.51612 6.76245C4.51566 7.05828 4.57375 7.35127 4.68704 7.62462C4.80034 7.89796 4.9666 8.14627 5.17628 8.35527C5.38597 8.56427 5.63494 8.72984 5.90891 8.84249C6.18287 8.95514 6.47643 9.01263 6.77271 9.01167Z" fill="#005BFF"/>
<path d="M10.4077 2.33811C10.6226 2.3431 10.8268 2.43314 10.9753 2.58843C11.1237 2.74372 11.2043 2.95153 11.1993 3.16615C11.1943 3.38077 11.1041 3.58462 10.9486 3.73285C10.7931 3.88108 10.5849 3.96155 10.37 3.95656C10.155 3.95157 9.95087 3.86153 9.80241 3.70624C9.65394 3.55095 9.57335 3.34314 9.57834 3.12852C9.58334 2.9139 9.67353 2.71005 9.82906 2.56182C9.98459 2.41359 10.1927 2.33312 10.4077 2.33811Z" fill="#005BFF"/>
</svg>
