<svg width="15" height="15" viewBox="0 0 15 15" fill="none" xmlns="http://www.w3.org/2000/svg">
<path d="M7.99593 14.1787H5.05469V4.71407H7.87528V5.97436C8.079 5.73759 8.25117 5.49805 8.46186 5.29927C8.98115 4.80999 9.61599 4.55793 10.3214 4.49121C10.9281 4.42849 11.5413 4.48692 12.1252 4.66311C13.1048 4.96891 13.6831 5.65651 13.9708 6.61655C14.162 7.25364 14.2307 7.90927 14.2348 8.5686C14.2474 10.4011 14.2427 12.2336 14.2441 14.0666C14.2441 14.0888 14.2404 14.1129 14.2367 14.1486H11.2913V13.9457C11.2913 12.3791 11.2945 10.8121 11.2848 9.24554C11.2824 8.9162 11.2514 8.58769 11.192 8.26373C11.0128 7.29071 10.3798 6.95247 9.46377 7.06506C8.64099 7.16607 8.19084 7.65026 8.06554 8.54219C8.02055 8.86832 7.99776 9.19712 7.99733 9.52633C7.9899 11.0062 7.99408 12.4866 7.99408 13.9665L7.99593 14.1787Z" fill="#005BFF"/>
<path d="M3.18011 14.1777H0.25V4.70703H3.18011V14.1777Z" fill="#005BFF"/>
<path d="M3.41506 1.67414C3.42063 2.61564 2.65492 3.39684 1.72122 3.40193C0.787519 3.40703 0.000464066 2.62537 0 1.68016C0.00655213 1.23283 0.188927 0.805989 0.507797 0.491685C0.826667 0.17738 1.25648 0.000792977 1.70456 2.66417e-06C2.15264 -0.000787649 2.58308 0.174282 2.90306 0.48746C3.22304 0.800638 3.40692 1.22683 3.41506 1.67414Z" fill="#005BFF"/>
</svg>
