<svg width="164" height="17" viewBox="0 0 164 17" fill="none" xmlns="http://www.w3.org/2000/svg">
<path d="M22.9932 16.2445H19.7344V0H22.9932V16.2445Z" fill="white"/>
<path d="M3.95101 0.0625L13.7073 11.4274V0.0625H16.9607V16.2997H13.7073L0 0.0625H3.95101Z" fill="white"/>
<path d="M47.4474 3.24634V16.2445H44.1941V3.24634H25.3516L28.6031 0H53.9523V3.24634H47.4474Z" fill="white"/>
<path d="M56.1641 8.11677V0H59.4156V8.11677C59.403 8.76443 59.5199 9.4081 59.7594 10.0101C59.999 10.6121 60.3563 11.1604 60.8107 11.6229C61.265 12.0854 61.8071 12.4528 62.4053 12.7035C63.0035 12.9543 63.6458 13.0835 64.2946 13.0835C64.9435 13.0835 65.5858 12.9543 66.184 12.7035C66.7822 12.4528 67.3243 12.0854 67.7786 11.6229C68.2329 11.1604 68.5903 10.6121 68.8299 10.0101C69.0694 9.4081 69.1863 8.76443 69.1737 8.11677V0H72.4271V8.11677C72.4271 10.27 71.5704 12.335 70.0454 13.8575C68.5205 15.38 66.4522 16.2354 64.2956 16.2354C62.139 16.2354 60.0707 15.38 58.5457 13.8575C57.0208 12.335 56.1641 10.27 56.1641 8.11677Z" fill="white"/>
<path d="M82.4615 16.2408C80.586 16.2387 78.7691 15.5877 77.3202 14.3987C75.8713 13.2097 74.8799 11.5561 74.5147 9.71936C74.1494 7.88265 74.433 5.97634 75.3171 4.32488C76.2012 2.67343 77.6312 1.37889 79.3637 0.66162C81.0962 -0.0556537 83.0241 -0.151341 84.8193 0.390846C86.6145 0.933033 88.166 2.07959 89.2098 3.63536C90.2536 5.19112 90.7251 7.05996 90.5442 8.92378C90.3632 10.7876 89.5409 12.5312 88.2173 13.8578C87.4722 14.6271 86.577 15.2355 85.5869 15.6454C84.5969 16.0553 83.5331 16.2579 82.4615 16.2408ZM82.4615 12.9945C83.5845 12.9898 84.6713 12.5968 85.5368 11.8824C86.4024 11.1679 86.9932 10.1761 87.2089 9.07571C87.4246 7.97531 87.2517 6.8343 86.7198 5.8468C86.1878 4.8593 85.3296 4.08632 84.2911 3.65937C83.2527 3.23242 82.0982 3.17788 81.024 3.50502C79.9498 3.83217 79.0223 4.52079 78.3993 5.45373C77.7764 6.38666 77.4964 7.50629 77.607 8.6221C77.7177 9.73791 78.2121 10.781 79.0062 11.5739C79.4552 12.0321 79.9933 12.3938 80.5876 12.6365C81.1818 12.8792 81.8196 12.9979 82.4615 12.9853V12.9945Z" fill="white"/>
<path d="M103.603 16.2432H92.2109L95.4643 12.9968H103.596C104.027 12.9968 104.441 12.8257 104.746 12.5212C105.051 12.2166 105.222 11.8035 105.222 11.3728C105.222 10.942 105.051 10.5289 104.746 10.2244C104.441 9.91978 104.027 9.74867 103.596 9.74867H97.0983C95.8045 9.74867 94.5637 9.23554 93.6489 8.32215C92.7341 7.40877 92.2201 6.16996 92.2201 4.87824C92.2201 3.58652 92.7341 2.34771 93.6489 1.43433C94.5637 0.520944 95.8045 0.0078125 97.0983 0.0078125H106.855L103.603 3.25416H97.0983C96.8847 3.25416 96.6731 3.29616 96.4758 3.37778C96.2784 3.4594 96.0991 3.57903 95.9481 3.72984C95.797 3.88065 95.6772 4.05969 95.5954 4.25673C95.5137 4.45377 95.4716 4.66496 95.4716 4.87824C95.4716 5.09152 95.5137 5.30271 95.5954 5.49975C95.6772 5.69679 95.797 5.87583 95.9481 6.02664C96.0991 6.17745 96.2784 6.29708 96.4758 6.3787C96.6731 6.46032 96.8847 6.50232 97.0983 6.50232H103.603C104.897 6.50232 106.138 7.01546 107.053 7.92884C107.967 8.84223 108.481 10.081 108.481 11.3728C108.481 12.6645 107.967 13.9033 107.053 14.8167C106.138 15.73 104.897 16.2432 103.603 16.2432Z" fill="white"/>
<path d="M118.235 16.2408C116.359 16.2387 114.543 15.5877 113.094 14.3987C111.645 13.2097 110.653 11.5561 110.288 9.71936C109.923 7.88265 110.206 5.97634 111.091 4.32488C111.975 2.67343 113.405 1.37889 115.137 0.66162C116.87 -0.0556537 118.798 -0.151341 120.593 0.390846C122.388 0.933033 123.939 2.07959 124.983 3.63536C126.027 5.19112 126.499 7.05996 126.318 8.92378C126.137 10.7876 125.314 12.5312 123.991 13.8578C123.245 14.6268 122.35 15.2351 121.36 15.6449C120.37 16.0548 119.307 16.2576 118.235 16.2408ZM118.235 12.9945C119.358 12.994 120.447 12.605 121.315 11.8935C122.183 11.182 122.778 10.1921 122.997 9.09227C123.217 7.9924 123.048 6.85056 122.519 5.86108C121.99 4.87161 121.135 4.09565 120.097 3.66528C119.06 3.23492 117.905 3.17674 116.83 3.50065C115.755 3.82457 114.825 4.51055 114.199 5.44186C113.573 6.37316 113.29 7.49222 113.397 8.60856C113.505 9.72491 113.997 10.7696 114.789 11.5647C115.236 12.0235 115.772 12.3861 116.365 12.6304C116.957 12.8747 117.594 12.9955 118.235 12.9853V12.9945Z" fill="white"/>
<path d="M132.777 3.11426V16.2426H129.523V3.11426M145.786 9.73892H134.403L137.657 6.49258H145.786V9.73892Z" fill="white"/>
<path d="M157.171 3.24634V16.2445H153.918V3.24634H129.523L132.777 0H163.676V3.24634H157.171Z" fill="white"/>
<path d="M40.1917 8.32026C40.8764 7.63896 41.343 6.76991 41.5321 5.82341C41.7213 4.87691 41.6245 3.89564 41.2541 3.00415C40.8837 2.11267 40.2563 1.35116 39.4516 0.81629C38.647 0.281422 37.7013 -0.00268726 36.7346 1.91573e-05H28.6031L25.3516 3.22986V16.2446H28.6031V3.24636H36.7346C37.166 3.24636 37.5797 3.41747 37.8848 3.72204C38.1899 4.02662 38.3612 4.43971 38.3612 4.87045C38.3612 5.30118 38.1899 5.71427 37.8848 6.01885C37.5797 6.32342 37.166 6.49453 36.7346 6.49453H30.2297L36.0259 16.2446H39.9897L35.9506 9.75004H36.7382C37.3812 9.76005 38.0194 9.63834 38.6134 9.39242C39.2073 9.1465 39.7445 8.7816 40.1917 8.32026Z" fill="white"/>
</svg>
