<svg width="128" height="40" viewBox="0 0 128 40" fill="none" xmlns="http://www.w3.org/2000/svg">
<g clip-path="url(#clip0_6368_343)">
<path d="M17.7325 26.1888H15.2188V13.6387H17.7325V26.1888Z" fill="#D9D9D9"/>
<path d="M3.04761 13.6816L10.5732 22.4619V13.6816H13.0826V26.2261H10.5732L0 13.6816H3.04761Z" fill="#D9D9D9"/>
<path d="M36.5984 16.1467V26.1888H34.0889V16.1467H19.5547L22.0627 13.6387H41.6159V16.1467H36.5984Z" fill="#D9D9D9"/>
<path d="M43.3203 19.9095V13.6387H45.8284V19.9095C45.8187 20.4099 45.9088 20.9072 46.0936 21.3723C46.2784 21.8374 46.554 22.261 46.9045 22.6183C47.2549 22.9756 47.6731 23.2594 48.1345 23.4532C48.5959 23.6469 49.0914 23.7467 49.5919 23.7467C50.0923 23.7467 50.5878 23.6469 51.0492 23.4532C51.5106 23.2594 51.9288 22.9756 52.2792 22.6183C52.6297 22.261 52.9053 21.8374 53.0901 21.3723C53.2749 20.9072 53.3651 20.4099 53.3553 19.9095V13.6387H55.8648V19.9095C55.8648 21.573 55.204 23.1684 54.0277 24.3447C52.8514 25.5209 51.2561 26.1818 49.5926 26.1818C47.9291 26.1818 46.3337 25.5209 45.1574 24.3447C43.9811 23.1684 43.3203 21.573 43.3203 19.9095Z" fill="#D9D9D9"/>
<path d="M63.6011 26.1833C62.1545 26.1816 60.753 25.6787 59.6354 24.7601C58.5178 23.8415 57.753 22.5639 57.4713 21.1449C57.1896 19.7259 57.4084 18.2532 58.0903 16.9773C58.7723 15.7014 59.8753 14.7013 61.2117 14.1471C62.548 13.593 64.0351 13.519 65.4198 13.9379C66.8046 14.3568 68.0013 15.2426 68.8065 16.4446C69.6116 17.6465 69.9753 19.0903 69.8357 20.5303C69.6961 21.9702 69.0619 23.3173 68.0409 24.3422C67.4662 24.9365 66.7756 25.4066 66.012 25.7233C65.2483 26.0399 64.4278 26.1965 63.6011 26.1833ZM63.6011 23.6752C64.4674 23.6716 65.3057 23.368 65.9733 22.816C66.6409 22.264 67.0967 21.4978 67.2631 20.6477C67.4294 19.7975 67.2961 18.916 66.8858 18.1531C66.4754 17.3902 65.8135 16.793 65.0125 16.4631C64.2114 16.1333 63.3209 16.0911 62.4923 16.3439C61.6637 16.5966 60.9483 17.1286 60.4678 17.8494C59.9873 18.5702 59.7713 19.4352 59.8566 20.2972C59.942 21.1593 60.3234 21.9651 60.9359 22.5777C61.2822 22.9317 61.6973 23.2111 62.1557 23.3986C62.6141 23.5862 63.106 23.6779 63.6011 23.6681V23.6752Z" fill="#D9D9D9"/>
<path d="M79.9124 26.1876H71.125L73.6345 23.6796H79.9067C80.2395 23.6796 80.5586 23.5474 80.7939 23.3121C81.0293 23.0768 81.1614 22.7576 81.1614 22.4248C81.1614 22.0921 81.0293 21.7729 80.7939 21.5376C80.5586 21.3023 80.2395 21.1701 79.9067 21.1701H74.8949C73.8969 21.1701 72.9398 20.7737 72.2342 20.068C71.5285 19.3623 71.1321 18.4053 71.1321 17.4073C71.1321 16.4094 71.5285 15.4523 72.2342 14.7466C72.9398 14.041 73.8969 13.6445 74.8949 13.6445H82.4204L79.9124 16.1526H74.8949C74.7301 16.1526 74.5669 16.185 74.4147 16.2481C74.2625 16.3111 74.1241 16.4036 74.0076 16.5201C73.8911 16.6366 73.7987 16.7749 73.7356 16.9272C73.6726 17.0794 73.6401 17.2425 73.6401 17.4073C73.6401 17.5721 73.6726 17.7352 73.7356 17.8875C73.7987 18.0397 73.8911 18.178 74.0076 18.2945C74.1241 18.4111 74.2625 18.5035 74.4147 18.5665C74.5669 18.6296 74.7301 18.662 74.8949 18.662H79.9124C80.9103 18.662 81.8674 19.0585 82.5731 19.7641C83.2787 20.4698 83.6752 21.4269 83.6752 22.4248C83.6752 23.4228 83.2787 24.3799 82.5731 25.0855C81.8674 25.7912 80.9103 26.1876 79.9124 26.1876Z" fill="#D9D9D9"/>
<path d="M91.1949 26.1833C89.7482 26.1816 88.3468 25.6787 87.2292 24.7601C86.1115 23.8415 85.3468 22.5639 85.0651 21.1449C84.7834 19.7259 85.0021 18.2532 85.6841 16.9773C86.366 15.7014 87.469 14.7013 88.8054 14.1471C90.1418 13.593 91.6289 13.519 93.0136 13.9379C94.3983 14.3568 95.5951 15.2426 96.4002 16.4446C97.2053 17.6465 97.5691 19.0903 97.4295 20.5303C97.2899 21.9702 96.6556 23.3173 95.6346 24.3422C95.0598 24.9363 94.3692 25.4062 93.6056 25.7229C92.8419 26.0396 92.0215 26.1962 91.1949 26.1833ZM91.1949 23.6752C92.0613 23.6749 92.9009 23.3743 93.5707 22.8246C94.2404 22.275 94.699 21.5102 94.8684 20.6605C95.0378 19.8107 94.9074 18.9286 94.4996 18.1641C94.0917 17.3997 93.4315 16.8002 92.6314 16.4677C91.8313 16.1352 90.9407 16.0902 90.1112 16.3405C89.2817 16.5907 88.5645 17.1207 88.0818 17.8402C87.599 18.5597 87.3805 19.4243 87.4635 20.2868C87.5464 21.1492 87.9257 21.9563 88.5367 22.5706C88.8816 22.925 89.2953 23.2052 89.7524 23.394C90.2095 23.5827 90.7004 23.676 91.1949 23.6681V23.6752Z" fill="#D9D9D9"/>
<path d="M102.416 16.0449V26.1876H99.9062V16.0449M112.451 21.163H103.67L106.18 18.6549H112.451V21.163Z" fill="#D9D9D9"/>
<path d="M121.232 16.1467V26.1888H118.723V16.1467H99.9062L102.416 13.6387H126.25V16.1467H121.232Z" fill="#D9D9D9"/>
<path d="M31.0016 20.0667C31.5298 19.5404 31.8897 18.869 32.0356 18.1377C32.1815 17.4065 32.1068 16.6484 31.8211 15.9596C31.5354 15.2709 31.0515 14.6825 30.4308 14.2693C29.8101 13.8561 29.0806 13.6366 28.335 13.6387H22.0627L19.5547 16.134V26.1889H22.0627V16.1467H28.335C28.6678 16.1467 28.9869 16.2789 29.2222 16.5142C29.4575 16.7495 29.5897 17.0687 29.5897 17.4015C29.5897 17.7342 29.4575 18.0534 29.2222 18.2887C28.9869 18.524 28.6678 18.6562 28.335 18.6562H23.3175L27.7883 26.1889H30.8459L27.7303 21.1713H28.3378C28.8338 21.1791 29.326 21.085 29.7842 20.895C30.2424 20.7051 30.6567 20.4231 31.0016 20.0667Z" fill="#D9D9D9"/>
</g>
<defs>
<clipPath id="clip0_6368_343">
<rect width="128" height="39.8689" fill="white"/>
</clipPath>
</defs>
</svg>
