<svg width="127" height="51" viewBox="0 0 127 51" fill="none" xmlns="http://www.w3.org/2000/svg">
<path d="M84.9729 31.8342C83.4939 31.8432 82.0284 31.5468 80.6687 30.9634C78.021 29.8375 75.9122 27.73 74.7848 25.083C73.8192 22.7874 73.6513 20.2341 74.308 17.8318C74.5638 16.9037 74.94 16.0132 75.4272 15.183C75.9105 14.369 76.4946 13.6192 77.1655 12.9513C77.8368 12.2833 78.5887 11.7016 79.4039 11.2197C81.7902 9.82155 84.6144 9.37129 87.3178 9.95814C88.0584 10.1199 88.782 10.3551 89.4761 10.6601C90.1547 10.9641 90.8008 11.3369 91.4035 11.7726C92.0032 12.2071 92.5579 12.7007 93.0587 13.246L93.4069 13.6202L92.5129 14.5108C92.2591 14.7714 91.9604 14.9844 91.6321 15.1399C91.2833 15.2904 90.9056 15.3649 90.5257 15.3585C89.9931 15.359 89.4731 15.1961 89.0357 14.8916C88.4441 14.4893 87.7987 14.1727 87.1186 13.9513C85.4966 13.4377 83.744 13.5175 82.1753 14.1764C81.328 14.5424 80.5565 15.0634 79.9005 15.7127C79.2498 16.3676 78.7286 17.1392 78.3641 17.9874C77.9968 18.8691 77.8142 19.8169 77.8277 20.772C77.8221 21.7275 78.0196 22.6733 78.4072 23.5466C78.7801 24.4102 79.3113 25.1964 79.9734 25.8644C80.6645 26.5218 81.4703 27.0471 82.3508 27.414C83.2262 27.7737 84.1667 27.9474 85.1123 27.9239C86.6111 27.9031 88.0643 27.4056 89.2614 26.5034V23.9638H88.6389C88.2516 23.9674 87.8688 23.8907 87.5125 23.7387C87.1865 23.5981 86.8914 23.3932 86.6451 23.1361C86.4046 22.8825 86.2158 22.5845 86.0889 22.2586C85.9591 21.9275 85.8927 21.5747 85.8934 21.219V20.0535H93.1421V28.2417C92.1057 29.3731 90.8458 30.2768 89.4414 30.8952C88.0377 31.5136 86.5204 31.8334 84.9862 31.8342" fill="#001018"/>
<path d="M106.447 31.8376C104.967 31.846 103.502 31.5495 102.142 30.9668C99.4964 29.8397 97.389 27.7324 96.2619 25.0864C95.6792 23.7266 95.3827 22.2614 95.3908 20.7821C95.3878 18.3596 96.1808 16.0033 97.6472 14.0749C99.1128 12.1464 101.172 10.7526 103.506 10.1073C105.432 9.58404 107.462 9.58404 109.387 10.1073C110.315 10.3618 111.205 10.7369 112.036 11.2231C112.846 11.7058 113.592 12.2875 114.258 12.9548C114.927 13.6234 115.507 14.3744 115.986 15.1897C116.98 16.8834 117.504 18.8116 117.504 20.7754C117.504 22.7393 116.98 24.6675 115.986 26.3611C115.023 28.0033 113.655 29.3712 112.013 30.3345C110.32 31.3299 108.391 31.8524 106.427 31.8476M106.427 13.6368C105.478 13.6285 104.537 13.8132 103.662 14.1798C101.947 14.9102 100.581 16.2759 99.8512 17.9908C99.4817 18.8722 99.2913 19.8182 99.2913 20.7738C99.2913 21.7294 99.4817 22.6754 99.8512 23.5567C100.4 24.8517 101.318 25.9563 102.49 26.733C103.663 27.5095 105.039 27.9237 106.445 27.9237C107.851 27.9237 109.227 27.5095 110.4 26.733C111.572 25.9563 112.49 24.8517 113.039 23.5567C113.411 22.6765 113.602 21.7308 113.602 20.7754C113.602 19.8201 113.411 18.8743 113.039 17.9941C112.312 16.2774 110.945 14.9109 109.228 14.1831C108.35 13.8052 107.403 13.6136 106.447 13.6203" fill="#001018"/>
<path d="M17.401 31.8295H8.96094V9.70511H17.401C18.3955 9.70258 19.3858 9.83512 20.3446 10.0991C21.2723 10.356 22.1627 10.7322 22.9936 11.2183C23.8068 11.7029 24.5574 12.2856 25.2286 12.9533C25.8983 13.6238 26.4812 14.3758 26.9636 15.1915C27.9587 16.8836 28.4834 18.8109 28.4834 20.7739C28.4834 22.7369 27.9587 24.6643 26.9636 26.3563C26.4807 27.1717 25.8979 27.9237 25.2286 28.5947C24.5583 29.2703 23.8038 29.8568 22.9836 30.3395C22.1516 30.8218 21.2615 31.1957 20.3347 31.4521C19.3759 31.716 18.3856 31.8486 17.3911 31.8461M12.8846 27.9192H17.3878C18.3411 27.9228 19.2852 27.7324 20.1625 27.3596C21.0129 26.9989 21.7862 26.4785 22.4406 25.8266C23.0949 25.1709 23.6186 24.3967 23.9836 23.5453C24.3551 22.6674 24.5466 21.7239 24.5466 20.7706C24.5466 19.8174 24.3551 18.8739 23.9836 17.996C23.2462 16.2808 21.8784 14.9142 20.1625 14.1783C19.2862 13.8017 18.3416 13.61 17.3878 13.6155H12.8846V27.9192Z" fill="#001018"/>
<path d="M75.3147 31.8252H72.8181C72.272 31.8312 71.7363 31.6757 71.2784 31.3782C70.8184 31.0824 70.4575 30.6557 70.242 30.1531L68.9176 27.1301H58.8848L57.5603 30.1498C57.3481 30.6516 56.9892 31.0775 56.5306 31.3717C56.07 31.6722 55.5309 31.83 54.981 31.8252H52.4844L62.1363 9.7207H65.676L75.3147 31.8252ZM60.6298 23.147H67.1826L63.9211 15.376L60.6298 23.147Z" fill="#001018"/>
<path d="M55.3147 9.49809C54.1784 8.67421 52.7615 8.3349 51.3753 8.55466C49.989 8.77442 48.7466 9.53528 47.9209 10.6702L43.3946 16.8949L38.8716 10.6702C38.474 10.08 37.9616 9.57591 37.365 9.18806C36.7684 8.80021 36.0997 8.53653 35.3989 8.41277C34.6981 8.28901 33.9796 8.30769 33.2862 8.46771C32.5928 8.62773 31.9387 8.9258 31.3631 9.34414C30.7874 9.76247 30.3019 10.2925 29.9355 10.9026C29.5692 11.5127 29.3296 12.1903 29.2309 12.895C29.1322 13.5997 29.1765 14.3171 29.3612 15.0044C29.5458 15.6916 29.867 16.3346 30.3056 16.8949L41.6529 32.5132C41.8457 32.7972 42.1049 33.0299 42.4082 33.1906C42.7116 33.3513 43.0496 33.4354 43.3929 33.4354C43.7362 33.4354 44.0742 33.3513 44.3776 33.1906C44.6809 33.0299 44.9402 32.7972 45.133 32.5132L56.4802 16.8949C57.3058 15.7592 57.6468 14.3423 57.4283 12.9553C57.2098 11.5684 56.4495 10.3249 55.3147 9.49809ZM53.222 14.7295L43.3946 28.2519L33.5671 14.7295C33.4487 14.5779 33.362 14.404 33.3123 14.2181C33.2625 14.0323 33.2506 13.8383 33.2774 13.6478C33.3042 13.4572 33.369 13.2741 33.4681 13.1091C33.5672 12.9442 33.6984 12.8009 33.854 12.6877C34.0097 12.5746 34.1865 12.4939 34.3739 12.4505C34.5613 12.4071 34.7556 12.4019 34.9451 12.4352C35.1346 12.4684 35.3155 12.5395 35.4769 12.6441C35.6384 12.7488 35.7772 12.8848 35.8849 13.0442L43.3946 23.3879L50.9009 13.0575C51.0087 12.8981 51.1475 12.762 51.3089 12.6574C51.4704 12.5528 51.6513 12.4817 51.8408 12.4484C52.0302 12.4152 52.2245 12.4204 52.412 12.4638C52.5994 12.5072 52.7762 12.5878 52.9318 12.701C53.0874 12.8141 53.2186 12.9574 53.3177 13.1224C53.4168 13.2873 53.4816 13.4705 53.5084 13.661C53.5351 13.8515 53.5233 14.0455 53.4736 14.2314C53.4238 14.4172 53.3371 14.5911 53.2187 14.7428" fill="#001018"/>
<path d="M106.447 31.8376C104.967 31.846 103.502 31.5495 102.142 30.9668C99.4964 29.8397 97.389 27.7324 96.2619 25.0864C95.6792 23.7266 95.3827 22.2614 95.3908 20.7821C95.3878 18.3596 96.1808 16.0033 97.6472 14.0749C99.1128 12.1464 101.172 10.7526 103.506 10.1073C105.432 9.58404 107.462 9.58404 109.387 10.1073C110.315 10.3618 111.205 10.7369 112.036 11.2231C112.846 11.7058 113.592 12.2875 114.258 12.9548C114.927 13.6234 115.507 14.3744 115.986 15.1897C116.98 16.8834 117.504 18.8116 117.504 20.7754C117.504 22.7393 116.98 24.6675 115.986 26.3611C115.023 28.0033 113.655 29.3712 112.013 30.3345C110.32 31.3299 108.391 31.8524 106.427 31.8476M106.427 13.6368C105.478 13.6285 104.537 13.8132 103.662 14.1798C101.947 14.9102 100.581 16.2759 99.8512 17.9908C99.4817 18.8722 99.2913 19.8182 99.2913 20.7738C99.2913 21.7294 99.4817 22.6754 99.8512 23.5567C100.4 24.8517 101.318 25.9563 102.49 26.733C103.663 27.5095 105.039 27.9237 106.445 27.9237C107.851 27.9237 109.227 27.5095 110.4 26.733C111.572 25.9563 112.49 24.8517 113.039 23.5567C113.411 22.6765 113.602 21.7308 113.602 20.7754C113.602 19.8201 113.411 18.8743 113.039 17.9941C112.312 16.2774 110.945 14.9109 109.228 14.1831C108.35 13.8052 107.403 13.6136 106.447 13.6203" fill="#001018"/>
<path d="M8.99219 36.6674C9.52946 36.5789 10.0735 36.5379 10.618 36.5449C11.2346 36.4975 11.8484 36.6674 12.353 37.025C12.5401 37.1841 12.6894 37.3828 12.7902 37.6067C12.891 37.8306 12.9407 38.0741 12.9358 38.3197C12.9463 38.563 12.9072 38.806 12.8206 39.0337C12.7341 39.2614 12.602 39.4691 12.4325 39.644C11.9195 40.0889 11.2526 40.3148 10.5749 40.2731C10.401 40.2756 10.2272 40.2646 10.0551 40.2401V42.4485H8.99219V36.6674ZM10.0551 39.3991C10.2257 39.4366 10.4004 39.4522 10.5749 39.4454C11.3762 39.4454 11.8663 39.0514 11.8663 38.366C11.8663 37.6806 11.4126 37.3726 10.6709 37.3726C10.4643 37.3683 10.2579 37.3861 10.0551 37.4257V39.3991Z" fill="#001018"/>
<path d="M13.7812 36.2773H14.864V38.8037H14.8806C15.0215 38.5995 15.21 38.4325 15.4297 38.3171C15.6495 38.2017 15.8939 38.1415 16.1421 38.1415C16.864 38.1415 17.6222 38.6216 17.6222 39.9791V42.4756H16.5527V40.0851C16.5527 39.4659 16.3242 39.0023 15.7315 39.0023C15.5487 39.0065 15.3718 39.0678 15.2257 39.1776C15.0796 39.2875 14.9716 39.4404 14.917 39.6149C14.8811 39.7214 14.8664 39.8338 14.8739 39.946V42.479H13.7812V36.2773Z" fill="#001018"/>
<path d="M21.1486 42.4568L21.0791 41.9866H21.056C20.9032 42.1698 20.7109 42.3159 20.4936 42.4139C20.2762 42.512 20.0394 42.5595 19.801 42.5528C19.6299 42.5623 19.4587 42.5367 19.2979 42.4774C19.1371 42.4182 18.9901 42.3267 18.866 42.2085C18.7418 42.0903 18.6433 41.9479 18.5763 41.7902C18.5093 41.6325 18.4754 41.4627 18.4766 41.2913C18.4766 40.2218 19.4236 39.6822 20.9931 39.6887V39.6126C20.9931 39.3345 20.8771 38.8743 20.1289 38.8743C19.7282 38.8748 19.335 38.9822 18.9898 39.1855L18.7812 38.4901C19.2493 38.2331 19.777 38.104 20.3109 38.116C21.6718 38.116 22.0625 38.9769 22.0625 39.9006V41.4337C22.0572 41.7735 22.0772 42.1133 22.1221 42.4502L21.1486 42.4568ZM21.0096 40.3874C20.2546 40.3675 19.5295 40.5331 19.5295 41.1787C19.5224 41.2608 19.5334 41.3435 19.5616 41.4208C19.59 41.4982 19.635 41.5684 19.6934 41.6266C19.7518 41.6847 19.8222 41.7292 19.8998 41.7571C19.9773 41.785 20.06 41.7955 20.1421 41.7879C20.3248 41.7911 20.5039 41.7365 20.6537 41.6318C20.8036 41.5271 20.9165 41.3778 20.9765 41.2052C20.9998 41.129 21.011 41.0497 21.0096 40.9701V40.3874Z" fill="#001018"/>
<path d="M23.1927 39.5826C23.1927 39.0066 23.1927 38.5894 23.1562 38.2152H24.0867L24.1231 39.0231H24.1562C24.2316 38.7708 24.3837 38.5481 24.5914 38.3862C24.799 38.2242 25.052 38.1309 25.3151 38.1192C25.3997 38.1187 25.4841 38.1276 25.5667 38.1457V39.139C25.4646 39.1161 25.3603 39.1039 25.2555 39.1026C25.0184 39.0945 24.787 39.1763 24.6077 39.3317C24.4284 39.487 24.3144 39.7044 24.2886 39.9402C24.2653 40.0491 24.253 40.16 24.2522 40.2713V42.4633H23.1927V39.5826Z" fill="#001018"/>
<path d="M26.2831 39.4775C26.2831 38.9908 26.2831 38.5802 26.25 38.216H27.1705L27.2136 38.8418H27.24C27.3726 38.6154 27.5637 38.4288 27.7933 38.3018C28.0228 38.1748 28.2824 38.112 28.5446 38.12C28.7976 38.1134 29.0464 38.1853 29.2569 38.3257C29.4674 38.4662 29.6292 38.6685 29.7201 38.9047C29.8503 38.6885 30.0295 38.5059 30.2432 38.3716C30.4933 38.1977 30.793 38.1094 31.0975 38.12C31.8028 38.12 32.5146 38.6001 32.5146 39.9576V42.4542H31.4916V40.1132C31.4916 39.408 31.2465 38.9908 30.7333 38.9908C30.5654 38.9965 30.4033 39.0539 30.2694 39.1553C30.1354 39.2566 30.0361 39.3969 29.985 39.557C29.9529 39.6736 29.9352 39.7937 29.932 39.9146V42.4542H28.889V40.0007C28.889 39.408 28.6539 38.9908 28.1572 38.9908C27.9801 38.9994 27.8104 39.064 27.6723 39.1753C27.5343 39.2865 27.4351 39.4388 27.389 39.61C27.3488 39.7157 27.3286 39.8279 27.3294 39.9411V42.4475H26.2831V39.4775Z" fill="#001018"/>
<path d="M36.0549 42.4567L35.9854 41.9866H35.9589C35.8067 42.1694 35.6149 42.3155 35.3982 42.4135C35.1814 42.5116 34.9451 42.5592 34.7073 42.5528C34.5362 42.5618 34.3653 42.5358 34.2046 42.4764C34.044 42.417 33.8972 42.3254 33.7732 42.2074C33.6492 42.0893 33.5506 41.9471 33.4835 41.7896C33.4164 41.632 33.3822 41.4624 33.3828 41.2912C33.3828 40.2218 34.3331 39.6821 35.8993 39.6887V39.6125C35.8993 39.3344 35.7867 38.8742 35.0384 38.8742C34.6367 38.8746 34.2424 38.982 33.8961 39.1854L33.6875 38.4901C34.157 38.2334 34.6855 38.1044 35.2205 38.1159C36.5781 38.1159 36.9721 38.9768 36.9721 39.9006V41.4336C36.9668 41.7734 36.9867 42.1132 37.0317 42.4501L36.0549 42.4567ZM35.9158 40.3873C35.1576 40.3675 34.4358 40.533 34.4358 41.1787C34.4287 41.2604 34.4396 41.3428 34.4677 41.4199C34.4958 41.497 34.5405 41.5671 34.5985 41.6251C34.6565 41.6831 34.7266 41.7278 34.8038 41.7559C34.8809 41.784 34.9632 41.795 35.045 41.7879C35.1569 41.7956 35.2691 41.7802 35.3748 41.7426C35.4805 41.7049 35.5772 41.6458 35.6589 41.569C35.7407 41.4922 35.8057 41.3995 35.8499 41.2964C35.8941 41.1933 35.9166 41.0822 35.9158 40.9701V40.3873Z" fill="#001018"/>
<path d="M41.2043 42.3243C40.823 42.4753 40.4157 42.5495 40.0057 42.5428C38.6812 42.5428 37.8203 41.6985 37.8203 40.384C37.8203 39.0695 38.6911 38.1193 40.1778 38.1193C40.5331 38.1159 40.8854 38.1834 41.2143 38.3179L41.0222 39.1192C40.7682 39.0059 40.4924 38.9494 40.2143 38.9536C39.8619 38.971 39.5298 39.1231 39.2865 39.3786C39.0432 39.6341 38.9076 39.9733 38.9076 40.3261C38.9076 40.6788 39.0432 41.018 39.2865 41.2735C39.5298 41.5291 39.8619 41.6811 40.2143 41.6985C40.5041 41.7019 40.7915 41.6455 41.0586 41.533L41.2043 42.3243Z" fill="#001018"/>
<path d="M42.8082 38.2207L43.5731 40.4921C43.6625 40.7536 43.7486 41.0748 43.8082 41.3198H43.8347C43.9043 41.0748 43.9837 40.7636 44.0631 40.4854L44.7254 38.2207H45.8777L44.8148 41.1112C44.2321 42.6939 43.8214 43.3992 43.3347 43.8362C43.0229 44.1254 42.6322 44.3155 42.2122 44.3826L41.9672 43.4786C42.1927 43.4212 42.4052 43.3212 42.5931 43.184C42.8379 43.0136 43.038 42.7864 43.1758 42.5217C43.2195 42.4641 43.2433 42.3938 43.2433 42.3214C43.2433 42.249 43.2195 42.1787 43.1758 42.1211L41.6328 38.2207H42.8082Z" fill="#001018"/>
<path d="M52.0361 42.4581C51.8904 42.3123 51.7513 42.1633 51.5758 41.9713C51.1139 42.3616 50.5248 42.569 49.9202 42.554C48.6223 42.554 47.9766 41.7461 47.9766 40.8985C47.9834 40.5368 48.0937 40.1846 48.2943 39.8836C48.495 39.5826 48.7777 39.3454 49.109 39.2V39.1734C48.8221 38.8472 48.6561 38.4322 48.6388 37.9981C48.6413 37.7881 48.687 37.5809 48.773 37.3893C48.8591 37.1978 48.9836 37.026 49.1389 36.8847C49.2942 36.7433 49.477 36.6355 49.6758 36.5679C49.8745 36.5002 50.0851 36.4742 50.2944 36.4915C51.1222 36.4915 51.748 37.0047 51.748 37.8159C51.748 38.4251 51.4003 38.9218 50.5361 39.349V39.3853C50.9434 39.8556 51.397 40.3787 51.7215 40.7098C51.9968 40.2289 52.1767 39.6993 52.2512 39.1503H53.2082C53.113 39.9546 52.7966 40.7168 52.2943 41.3522C52.6254 41.7098 52.9566 42.0673 53.3042 42.4481L52.0361 42.4581ZM51.0626 41.372C50.705 40.9978 50.1487 40.3787 49.599 39.7429C49.4233 39.8443 49.276 39.9886 49.1712 40.1623C49.0664 40.336 49.0074 40.5335 48.9997 40.7363C48.9972 40.8768 49.0238 41.0163 49.0777 41.146C49.1316 41.2757 49.2117 41.3929 49.3131 41.4902C49.4144 41.5875 49.5348 41.6628 49.6666 41.7115C49.7984 41.7601 49.9389 41.7809 50.0792 41.7726C50.2625 41.7775 50.4449 41.7453 50.6156 41.6782C50.7862 41.6111 50.9416 41.5103 51.0725 41.382M49.6189 37.9087C49.637 38.2649 49.7896 38.601 50.046 38.849C50.5394 38.5179 50.8275 38.2629 50.8275 37.8556C50.8362 37.7732 50.8277 37.6899 50.8025 37.6109C50.7775 37.5318 50.7362 37.4589 50.6814 37.3967C50.6266 37.3344 50.5596 37.2843 50.4844 37.2493C50.4092 37.2143 50.3276 37.1953 50.2448 37.1935C50.1562 37.1981 50.0696 37.2203 49.9898 37.2591C49.9101 37.2977 49.8389 37.352 49.7806 37.4187C49.7222 37.4854 49.6778 37.5631 49.6501 37.6473C49.6223 37.7314 49.6117 37.8203 49.6189 37.9087Z" fill="#001018"/>
<path d="M56.3823 42.4572L54.9453 36.59H56.0843L56.6439 39.2388C56.7896 39.9508 56.932 40.6991 57.028 41.2851C57.124 40.666 57.2896 39.9607 57.4551 39.229L58.0908 36.5801H59.2133L59.8127 39.2819C59.9617 39.9806 60.0842 40.6328 60.1703 41.2685H60.1868C60.2928 40.6064 60.4318 39.9441 60.5875 39.2388L61.1967 36.59H62.2861L60.71 42.4572H59.561L58.955 39.6991C58.8093 39.0845 58.6987 38.4621 58.6239 37.835C58.518 38.4607 58.4054 39.0269 58.2333 39.6991L57.5544 42.4572H56.3823Z" fill="#001018"/>
<path d="M63.3814 40.6355C63.4045 41.4004 64.0072 41.7315 64.6859 41.7315C65.0864 41.7424 65.4852 41.6772 65.8614 41.5395L66.017 42.2811C65.5444 42.4602 65.0423 42.549 64.5369 42.5427C63.1628 42.5427 62.3516 41.6984 62.3516 40.4005C62.3516 39.225 63.0668 38.1191 64.4244 38.1191C65.782 38.1191 66.2388 39.2515 66.2388 40.1819C66.2403 40.3338 66.2292 40.4855 66.2057 40.6355H63.3814ZM65.2456 39.8872C65.2456 39.4932 65.08 38.8509 64.3681 38.8509C63.7058 38.8509 63.4277 39.4502 63.3747 39.8872H65.2456Z" fill="#001018"/>
<path d="M68.1965 36.2773H67.1172V42.459H68.1965V36.2773Z" fill="#001018"/>
<path d="M70.431 36.2773H69.3516V42.459H70.431V36.2773Z" fill="#001018"/>
<path d="M71.5878 39.4773C71.5878 38.9906 71.5878 38.58 71.5547 38.2158H72.495L72.548 38.8515H72.5745C72.7144 38.6213 72.9127 38.4323 73.1495 38.3037C73.3863 38.1752 73.6529 38.1117 73.9222 38.1198C74.6638 38.1198 75.4287 38.5999 75.4287 39.9376V42.454H74.3592V40.0601C74.3592 39.4508 74.1308 38.9906 73.548 38.9906C73.3619 38.9945 73.1815 39.0562 73.032 39.1672C72.8826 39.2781 72.7712 39.4328 72.7136 39.6098C72.6806 39.717 72.665 39.8287 72.6672 39.9409V42.4308H71.5878V39.4773Z" fill="#001018"/>
<path d="M77.3311 40.6355C77.3576 41.4004 77.9569 41.7315 78.6357 41.7315C79.0361 41.7424 79.435 41.6772 79.8111 41.5395L79.9701 42.2811C79.4974 42.4599 78.9954 42.5487 78.49 42.5427C77.1126 42.5427 76.3047 41.6984 76.3047 40.4005C76.3047 39.225 77.0166 38.1191 78.3742 38.1191C79.7317 38.1191 80.2052 39.2515 80.2052 40.1819C80.2059 40.3339 80.1937 40.4857 80.1688 40.6355H77.3311ZM79.1953 39.8872C79.1953 39.4932 79.0298 38.8509 78.3146 38.8509C77.6523 38.8509 77.3742 39.4502 77.3212 39.8872H79.1953Z" fill="#001018"/>
<path d="M81.0112 41.4751C81.3445 41.6627 81.7182 41.7672 82.1005 41.7798C82.5708 41.7798 82.7796 41.5877 82.7796 41.3096C82.7796 41.0315 82.6039 40.8758 82.0807 40.6937C81.2563 40.4057 80.9052 39.9521 80.9152 39.4554C80.9152 38.7071 81.5343 38.131 82.5177 38.131C82.9065 38.1269 83.2908 38.2129 83.6404 38.3826L83.4317 39.1409C83.158 38.9856 82.8489 38.9014 82.5343 38.8958C82.1503 38.8958 81.9417 39.0813 81.9417 39.3395C81.9417 39.5978 82.1436 39.7402 82.6833 39.9322C83.4479 40.2103 83.8056 40.5944 83.816 41.2301C83.816 41.995 83.2133 42.5546 82.0907 42.5546C81.6472 42.5634 81.2083 42.4634 80.8125 42.2632L81.0112 41.4751Z" fill="#001018"/>
<path d="M84.6384 41.4752C84.9718 41.6627 85.3458 41.7673 85.7279 41.7798C86.1985 41.7798 86.4065 41.5878 86.4065 41.3097C86.4065 41.0315 86.231 40.8759 85.708 40.6938C84.8833 40.4057 84.5359 39.9521 84.5425 39.4555C84.5425 38.7072 85.1622 38.131 86.1454 38.131C86.5341 38.1265 86.9184 38.2127 87.2681 38.3827L87.0593 39.1409C86.7849 38.9857 86.4766 38.9015 86.1616 38.8959C85.781 38.8959 85.5693 39.0813 85.5693 39.3396C85.5693 39.5978 85.7714 39.7402 86.3106 39.9323C87.0755 40.2104 87.4333 40.5945 87.4429 41.2301C87.4429 41.995 86.8402 42.5546 85.7183 42.5546C85.2706 42.5626 84.8287 42.4603 84.4297 42.2566L84.6384 41.4752Z" fill="#001018"/>
<path d="M93.4565 39.8526H91.2444V41.5776H93.7176V42.4551H90.1719V36.5879H93.5856V37.4686H91.2444V38.9818H93.4565V39.8526Z" fill="#001018"/>
<path d="M95.3225 38.2144L95.8263 39.0157C95.965 39.2408 96.0874 39.4494 96.2099 39.6779H96.2364C96.3559 39.4428 96.4784 39.2243 96.6008 39.0157L97.0714 38.2343H98.2398L96.8191 40.2706L98.2634 42.4724H97.0544L96.5315 41.595C96.3921 41.3698 96.2696 41.1414 96.1472 40.9096H96.1309C96.0085 41.1513 95.889 41.3599 95.7466 41.595L95.2598 42.4393H94.0781L95.5482 40.2805L94.1275 38.2012L95.3225 38.2144Z" fill="#001018"/>
<path d="M98.9033 39.6278C98.9033 39.0715 98.8834 38.6344 98.8672 38.2172H99.8069L99.86 38.8795C100.018 38.6343 100.238 38.4351 100.497 38.3019C100.756 38.1688 101.046 38.1065 101.337 38.1213C102.314 38.1213 103.122 38.9557 103.122 40.28C103.122 41.8131 102.155 42.5514 101.191 42.5514C100.961 42.5634 100.731 42.518 100.522 42.4191C100.314 42.3203 100.133 42.1712 99.9958 41.9852H99.9795V44.1805H98.91L98.9033 39.6278ZM99.9729 40.6807C99.9714 40.7801 99.9832 40.8793 100.009 40.9754C100.058 41.1882 100.178 41.3782 100.348 41.5141C100.519 41.65 100.731 41.724 100.949 41.7237C101.628 41.7237 102.029 41.1575 102.029 40.3231C102.029 39.5748 101.661 38.9655 100.973 38.9655C100.747 38.9684 100.528 39.0484 100.353 39.1923C100.179 39.3362 100.058 39.5353 100.013 39.7569C99.9854 39.8449 99.9707 39.9363 99.9692 40.0284L99.9729 40.6807Z" fill="#001018"/>
<path d="M104.753 40.6355C104.779 41.4004 105.382 41.7315 106.06 41.7315C106.461 41.7424 106.86 41.6772 107.236 41.5395L107.392 42.2811C106.919 42.4602 106.417 42.549 105.911 42.5427C104.537 42.5427 103.727 41.6984 103.727 40.4005C103.727 39.225 104.441 38.1191 105.799 38.1191C107.157 38.1191 107.63 39.2515 107.63 40.1819C107.632 40.3339 107.62 40.4859 107.594 40.6355H104.753ZM106.617 39.8872C106.617 39.4932 106.451 38.8509 105.736 38.8509C105.074 38.8509 104.795 39.4502 104.743 39.8872H106.617Z" fill="#001018"/>
<path d="M108.494 39.5826C108.494 39.0066 108.494 38.5894 108.461 38.2152H109.391L109.424 39.0231H109.46C109.536 38.771 109.687 38.5485 109.894 38.3865C110.101 38.2245 110.354 38.131 110.616 38.1191C110.701 38.1189 110.785 38.1278 110.868 38.1456V39.139C110.765 39.1159 110.659 39.1037 110.554 39.1025C110.319 39.0986 110.091 39.1823 109.915 39.3371C109.738 39.492 109.626 39.7071 109.6 39.9402C109.578 40.0493 109.566 40.1601 109.563 40.2713V42.4633H108.494V39.5826Z" fill="#001018"/>
<path d="M113.019 37.002V38.2138H114.04V39.0151H113.019V40.8858C113.019 41.399 113.159 41.6705 113.569 41.6705C113.71 41.6717 113.85 41.6539 113.986 41.6176L114.003 42.4354C113.753 42.5133 113.491 42.5492 113.228 42.5413C113.059 42.5493 112.89 42.5222 112.731 42.4619C112.573 42.4015 112.429 42.3091 112.308 42.1904C112.05 41.8533 111.931 41.4302 111.976 41.0083V39.0217H111.367V38.2138H111.976V37.2569L113.019 37.002Z" fill="#001018"/>
<path d="M114.792 41.4752C115.125 41.6627 115.498 41.7673 115.88 41.7798C116.351 41.7798 116.543 41.5878 116.543 41.3097C116.543 41.0315 116.371 40.8759 115.848 40.6938C115.02 40.4057 114.672 39.9521 114.679 39.4555C114.679 38.7072 115.298 38.131 116.282 38.131C116.67 38.1265 117.055 38.2127 117.404 38.3827L117.196 39.1409C116.923 38.9855 116.615 38.9013 116.302 38.8959C115.917 38.8959 115.709 39.0813 115.709 39.3396C115.709 39.5978 115.907 39.7402 116.447 39.9323C117.216 40.2104 117.57 40.5945 117.579 41.2301C117.579 41.995 116.98 42.5546 115.855 42.5546C115.414 42.5614 114.979 42.4614 114.586 42.2632L114.792 41.4752Z" fill="#001018"/>
</svg>
