<svg width="12" height="17" viewBox="0 0 12 17" fill="none" xmlns="http://www.w3.org/2000/svg">
<path d="M5.34815 0C5.72018 0.27814 6.0752 0.503875 6.39621 0.782014C7.47827 1.7031 8.17125 2.86669 8.34064 4.32584C8.44198 5.28118 8.32364 6.20223 8.01961 7.10517C7.76593 7.83478 8.0536 8.58185 8.71265 8.87751C9.18601 9.08577 9.64238 9.01658 10.0484 8.70351C10.4544 8.37364 10.6231 7.9215 10.5388 7.38336C10.5388 7.34843 10.5218 7.29669 10.5218 7.24429C10.5558 7.26176 10.5728 7.26176 10.5728 7.27923C11.2998 8.49524 11.7732 9.798 11.7732 11.2578C11.7902 13.186 10.9278 14.6627 9.45668 15.8095C9.03432 16.1394 8.5773 16.3826 8.07059 16.5741C8.79765 15.8794 9.13567 15.0624 8.98332 14.0553C8.86498 13.2565 8.44261 12.631 7.88425 12.1097C7.83325 12.353 7.81691 12.6136 7.71492 12.8394C7.39389 13.5166 6.53151 13.6556 5.99009 13.1518C5.1787 12.3872 4.92502 11.4143 5.00936 10.32C5.09436 9.29476 6.00708 7.27921 6.00708 7.21007C5.83775 7.26247 0.985761 10.8755 3.23431 15.5838C3.43699 16.0178 3.74166 16.4001 4.09669 16.7307C3.96135 16.6783 3.84301 16.644 3.70767 16.5916C2.42291 16.0877 1.35786 15.2889 0.647843 14.0555C0.0561309 13.0302 -0.0792104 11.9183 0.0391421 10.7548C0.258825 8.75683 1.13821 7.10678 2.49038 5.68185C3.40311 4.72651 4.19813 3.68386 4.80689 2.50282C5.07757 1.96401 5.29725 1.4084 5.3476 0.800407C5.36525 0.556527 5.34825 0.313335 5.34825 0.000264853L5.34815 0Z" fill="#005BFF"/>
</svg>
