<svg width="18" height="18" viewBox="0 0 18 18" fill="none" xmlns="http://www.w3.org/2000/svg">
<path d="M8.56249 0C3.84117 0 0 3.84117 0 8.56249C0 13.2838 3.84117 17.125 8.56249 17.125C13.2839 17.125 17.125 13.2838 17.125 8.56249C17.125 3.84117 13.2839 0 8.56249 0ZM13.2578 6.35641L8.0442 11.9243C7.88842 12.09 7.67129 12.2061 7.44376 12.2061H7.44039C7.21408 12.2061 6.99762 12.0929 6.84131 11.9293L3.87206 8.81156C3.55593 8.4806 3.5678 7.95092 3.89863 7.63479C4.22959 7.31893 4.75423 7.32806 5.07022 7.65876L7.4354 10.1327L12.0499 5.22205C12.3633 4.88893 12.8874 4.87147 13.2214 5.18544C13.5548 5.49888 13.5709 6.02288 13.2578 6.35641Z" fill="#005BFF"/>
</svg>
